# xmcd
#
# Track frame offsets: 
#        150
#        35875
#        63485
#        105427
#        127903
#        152419
#        193284
#        224498
#
# Disc length: 3415 seconds
#
# Revision: 0
# Processed by: cddbd v1.5.2PL0 Copyright (c) Steve Scherf et al.
# Submitted via: ExactAudioCopy v0.95b4
#
DISCID=710d5508
DTITLE=Eric Clapton - 1986-11-23 - Blood Brother - CD2
DYEAR=1986
DGENRE=Blues
TTITLE0=Tearing Us Apart
TTITLE1=Holy Mother
TTITLE2=Badge
TTITLE3=Let It Rain
TTITLE4=Cocaine
TTITLE5=Layla
TTITLE6=Sunshine Of Your Love
TTITLE7=Further On Up The Road
EXTD=
EXTT0=
EXTT1=
EXTT2=
EXTT3=
EXTT4=
EXTT5=
EXTT6=
EXTT7=
PLAYORDER=
